<?xml version="1.0" encoding="UTF-8" standalone="no"?>
<svg
   xmlns:dc="http://purl.org/dc/elements/1.1/"
   xmlns:cc="http://creativecommons.org/ns#"
   xmlns:rdf="http://www.w3.org/1999/02/22-rdf-syntax-ns#"
   xmlns:svg="http://www.w3.org/2000/svg"
   xmlns="http://www.w3.org/2000/svg"
   xmlns:sodipodi="http://sodipodi.sourceforge.net/DTD/sodipodi-0.dtd"
   xmlns:inkscape="http://www.inkscape.org/namespaces/inkscape"
   height="512pt"
   viewBox="0 0 512 512"
   width="512pt"
   version="1.1"
   id="svg42"
   sodipodi:docname="panda (2).svg"
   inkscape:version="0.92.4 (5da689c313, 2019-01-14)">
  <metadata
     id="metadata48">
    <rdf:RDF>
      <cc:Work
         rdf:about="">
        <dc:format>image/svg+xml</dc:format>
        <dc:type
           rdf:resource="http://purl.org/dc/dcmitype/StillImage" />
      </cc:Work>
    </rdf:RDF>
  </metadata>
  <defs
     id="defs46" />
  <sodipodi:namedview
     pagecolor="#ffffff"
     bordercolor="#666666"
     borderopacity="1"
     objecttolerance="10"
     gridtolerance="10"
     guidetolerance="10"
     inkscape:pageopacity="0"
     inkscape:pageshadow="2"
     inkscape:window-width="1222"
     inkscape:window-height="735"
     id="namedview44"
     showgrid="false"
     inkscape:zoom="0.9777961"
     inkscape:cx="303.11342"
     inkscape:cy="293.93996"
     inkscape:window-x="608"
     inkscape:window-y="123"
     inkscape:window-maximized="0"
     inkscape:current-layer="svg42" />
  <path
     d="m512 256c0 141.386719-114.613281 256-256 256s-256-114.613281-256-256 114.613281-256 256-256 256 114.613281 256 256zm0 0"
     id="path2"
     fill="#ffe955"
     style="fill:#1782ed;fill-opacity:1" />
  <path
     d="m445.449219 428.191406c-46.839844 51.488282-114.371094 83.808594-189.449219 83.808594-74.839844 0-142.179688-32.121094-189-83.320312l11.308594-59.589844 16.082031-84.75 161.609375.640625v6.109375l.539062-6.109375 161.609376-.640625 15.960937 84.101562zm0 0"
     fill="#474f6f"
     id="path8" />
  <path
     d="m445.449219 428.191406c-46.839844 51.488282-114.371094 83.808594-189.449219 83.808594v-220.910156l.539062-6.109375 161.609376-.640625zm0 0"
     fill="#313b5a"
     id="path10" />
  <path
     d="m418.148438 284.339844-161.609376.640625-.539062 6.109375v-6.109375l-161.609375-.640625-16.082031 84.75c21.261718 31.070312 57.019531 51.5 97.472656 51.5h1.320312c2.007813 0 3.648438.800781 4.859376 1.699218 15.710937 25.78125 43.558593 41.550782 74.039062 41.550782s58.328125-15.78125 74.039062-41.550782c1.210938-.898437 2.851563-1.699218 4.859376-1.699218h1.320312c36.019531 0 69.582031-16.128906 92.089844-44.261719 2.050781-2.558594 3.980468-5.199219 5.800781-7.886719zm0 0"
     fill="#323b5a"
     id="path12" />
  <path
     d="m434.109375 368.441406c-1.820313 2.6875-3.75 5.328125-5.800781 7.886719-22.507813 28.132813-56.070313 44.261719-92.089844 44.261719h-1.320312c-2.007813 0-3.648438.800781-4.859376 1.699218-15.710937 25.769532-43.558593 41.550782-74.039062 41.550782v-172.75l.539062-6.109375 161.609376-.640625zm0 0"
     fill="#20273a"
     id="path14" />
  <path
     d="m216.5 201.289062c0 30.730469-24.910156 55.640626-55.640625 55.640626-27.910156 0-51.039063-20.570313-55.03125-47.371094-.398437-2.699219-.609375-5.457032-.609375-8.269532 0-30.730468 24.921875-55.640624 55.640625-55.640624 6.851563 0 13.410156 1.242187 19.46875 3.511718 21.132813 7.890625 36.171875 28.25 36.171875 52.128906zm0 0"
     fill="#474f6f"
     id="path16" />
  <path
     d="m180.328125 149.160156c-14.359375 6.398438-27.929687 14.621094-40.296875 24.511719-13 10.40625-24.5 22.507813-34.203125 35.886719 3.992187 26.800781 27.121094 47.371094 55.03125 47.371094 30.730469 0 55.640625-24.910157 55.640625-55.640626 0-23.878906-15.039062-44.238281-36.171875-52.128906zm0 0"
     fill="#323b5a"
     id="path18" />
  <path
     d="m406.78125 201.289062c0 2.8125-.210938 5.570313-.609375 8.269532-3.992187 26.800781-27.121094 47.371094-55.03125 47.371094-30.730469 0-55.640625-24.910157-55.640625-55.640626 0-23.878906 15.039062-44.238281 36.171875-52.128906 6.058594-2.269531 12.617187-3.511718 19.46875-3.511718 30.71875 0 55.640625 24.910156 55.640625 55.640624zm0 0"
     fill="#323b5a"
     id="path20" />
  <path
     d="m371.96875 173.679688c-12.367188-9.898438-25.9375-18.121094-40.296875-24.519532-21.132813 7.890625-36.171875 28.25-36.171875 52.128906 0 30.730469 24.910156 55.640626 55.640625 55.640626 27.910156 0 51.039063-20.570313 55.03125-47.371094-9.703125-13.378906-21.203125-25.480469-34.203125-35.878906zm0 0"
     fill="#20273a"
     id="path22" />
  <path
     d="m336.21875 386.089844h-1.320312c-14.289063 0-27.417969 7.28125-35.617188 18.988281-7.679688 10.972656-20.402344 18.03125-34.601562 18.03125h-17.359376c-14.199218 0-26.921874-7.058594-34.601562-18.03125-8.199219-11.707031-21.328125-18.988281-35.617188-18.988281h-1.320312c-47.082031 0-83.460938-38.449219-83.460938-83.25 0-6.078125.667969-12.269532 2.070313-18.5 8.507813-37.789063 29.550781-70.109375 58.140625-92.980469s64.730469-36.289063 103.46875-36.289063c77.46875 0 144.589844 53.691407 161.609375 129.269532 11.742187 52.160156-27.917969 101.75-81.390625 101.75zm0 0"
     fill="#fff"
     id="path24" />
  <path
     d="m336.21875 386.089844h-1.320312c-14.289063 0-27.417969 7.28125-35.617188 18.988281-7.679688 10.972656-20.402344 18.03125-34.601562 18.03125h-8.679688v-268.039063c77.46875 0 144.589844 53.691407 161.609375 129.269532 11.742187 52.160156-27.917969 101.75-81.390625 101.75zm0 0"
     fill="#d0f6ff"
     id="path26"
     style="fill:#000000;fill-opacity:0.05098039" />
  <g
     fill="#323b5a"
     id="g38">
    <path
       d="m275.109375 360.507812c5.957031-5.246093 2.246094-15.074218-5.6875-15.074218h-26.84375c-7.9375 0-11.644531 9.828125-5.6875 15.074218 10.925781 9.613282 27.292969 9.613282 38.21875 0zm0 0"
       id="path32" />
    <path
       d="m281.492188 400.324219c-1.007813 0-2.03125-.21875-3.003907-.679688l-22.488281-10.707031-22.488281 10.707031c-3.492188 1.660157-7.667969.179688-9.328125-3.308593-1.664063-3.492188-.179688-7.671876 3.308594-9.332032l25.5-12.140625c1.902343-.90625 4.113281-.90625 6.019531 0l25.496093 12.140625c3.492188 1.660156 4.972657 5.839844 3.3125 9.332032-1.203124 2.515624-3.710937 3.988281-6.328124 3.988281zm0 0"
       id="path34" />
    <path
       d="m198.257812 345.183594h-6.128906c-18.421875 0-30.125-19.71875-21.304687-35.890625l11.640625-21.347657c4.253906-7.796874 12.425781-12.648437 21.308594-12.648437 15.867187 0 27.464843 14.976563 23.496093 30.339844l-5.511719 21.347656c-2.769531 10.714844-12.433593 18.199219-23.5 18.199219zm0 0"
       id="path36" />
  </g>
  <path
     d="m313.742188 345.183594h6.128906c18.421875 0 30.125-19.71875 21.304687-35.890625l-11.640625-21.347657c-4.253906-7.796874-12.425781-12.648437-21.308594-12.648437-15.867187 0-27.464843 14.976563-23.496093 30.339844l5.511719 21.347656c2.769531 10.714844 12.433593 18.199219 23.5 18.199219zm0 0"
     fill="#20273a"
     id="path40" />
</svg>
