<?xml version="1.0" encoding="UTF-8" standalone="no"?>
<!-- Created with Inkscape (http://www.inkscape.org/) -->

<svg
   xmlns:osb="http://www.openswatchbook.org/uri/2009/osb"
   xmlns:dc="http://purl.org/dc/elements/1.1/"
   xmlns:cc="http://creativecommons.org/ns#"
   xmlns:rdf="http://www.w3.org/1999/02/22-rdf-syntax-ns#"
   xmlns:svg="http://www.w3.org/2000/svg"
   xmlns="http://www.w3.org/2000/svg"
   xmlns:xlink="http://www.w3.org/1999/xlink"
   xmlns:sodipodi="http://sodipodi.sourceforge.net/DTD/sodipodi-0.dtd"
   xmlns:inkscape="http://www.inkscape.org/namespaces/inkscape"
   width="48"
   height="48"
   viewBox="0 0 12.7 12.7"
   version="1.1"
   id="svg903"
   inkscape:version="0.92.4 (5da689c313, 2019-01-14)"
   sodipodi:docname="launcher.svg">
  <defs
     id="defs897">
    <linearGradient
       id="linearGradient7797"
       osb:paint="solid">
      <stop
         style="stop-color:#cbd1d4;stop-opacity:1;"
         offset="0"
         id="stop7795" />
    </linearGradient>
    <linearGradient
       gradientTransform="matrix(0.26458333,0,0,0.26458333,9.686172,285.19034)"
       gradientUnits="userSpaceOnUse"
       x1="24"
       y1="4.9488816"
       x2="24"
       y2="43.814733"
       id="linearGradient-1">
      <stop
         stop-color="#2CCAFF"
         offset="0%"
         id="stop7449" />
      <stop
         stop-color="#218AFF"
         offset="100%"
         id="stop7451" />
    </linearGradient>
    <marker
       inkscape:stockid="Arrow1Lstart"
       orient="auto"
       refY="0.0"
       refX="0.0"
       id="Arrow1Lstart"
       style="overflow:visible"
       inkscape:isstock="true">
      <path
         id="path1697"
         d="M 0.0,0.0 L 5.0,-5.0 L -12.5,0.0 L 5.0,5.0 L 0.0,0.0 z "
         style="fill-rule:evenodd;stroke:#000000;stroke-width:1.0pt"
         transform="scale(0.8) translate(12.5,0)" />
    </marker>
    <linearGradient
       id="panda-color"
       x1="10.626438"
       x2="19.31065"
       y1="19.279192"
       y2="27.963404"
       gradientUnits="userSpaceOnUse"
       gradientTransform="matrix(0.84524357,-0.84524354,0.84524357,0.84524354,-20.020386,281.7995)">
      <stop
         offset="0%"
         stop-color="#00B8E8"
         id="stop27" />
      <stop
         offset="100%"
         stop-color="#4B5EFF"
         id="stop29" />
    </linearGradient>
    <linearGradient
       inkscape:collect="always"
       xlink:href="#panda-color"
       id="linearGradient1488"
       x1="0.28397381"
       y1="290.83606"
       x2="3.5914345"
       y2="290.83606"
       gradientUnits="userSpaceOnUse"
       gradientTransform="matrix(3.8398039,0,0,5.0018504,-1.0904036,-1164.0684)" />
    <linearGradient
       id="linearGradient-1-0"
       y2="43.814733"
       x2="24"
       y1="4.9488816"
       x1="24"
       gradientUnits="userSpaceOnUse"
       gradientTransform="matrix(0.26458333,0,0,0.26458333,9.686172,285.19034)">
      <stop
         id="stop1529"
         offset="0%"
         stop-color="#2CCAFF"
         style="stop-color:#ffffff;stop-opacity:1" />
      <stop
         id="stop1531"
         offset="100%"
         stop-color="#218AFF"
         style="stop-color:#e6e6e6;stop-opacity:1" />
    </linearGradient>
    <linearGradient
       id="linearGradient-1-6"
       y2="43.814733"
       x2="24"
       y1="4.9488816"
       x1="24"
       gradientUnits="userSpaceOnUse">
      <stop
         id="stop7612"
         offset="0%"
         stop-color="#2CCAFF" />
      <stop
         id="stop7614"
         offset="100%"
         stop-color="#218AFF" />
    </linearGradient>
    <linearGradient
       inkscape:collect="always"
       xlink:href="#linearGradient7797"
       id="linearGradient7799"
       x1="13.904358"
       y1="289.34368"
       x2="21.312689"
       y2="289.34368"
       gradientUnits="userSpaceOnUse" />
  </defs>
  <sodipodi:namedview
     id="base"
     pagecolor="#ffffff"
     bordercolor="#666666"
     borderopacity="1.0"
     inkscape:pageopacity="0.0"
     inkscape:pageshadow="2"
     inkscape:zoom="7.919596"
     inkscape:cx="39.304546"
     inkscape:cy="17.516875"
     inkscape:document-units="mm"
     inkscape:current-layer="layer1"
     showgrid="false"
     units="px"
     inkscape:window-width="1920"
     inkscape:window-height="864"
     inkscape:window-x="0"
     inkscape:window-y="35"
     inkscape:window-maximized="1" />
  <metadata
     id="metadata900">
    <rdf:RDF>
      <cc:Work
         rdf:about="">
        <dc:format>image/svg+xml</dc:format>
        <dc:type
           rdf:resource="http://purl.org/dc/dcmitype/StillImage" />
        <dc:title />
      </cc:Work>
    </rdf:RDF>
  </metadata>
  <g
     inkscape:label="Layer 1"
     inkscape:groupmode="layer"
     id="layer1"
     transform="translate(0,-284.29997)">
    <circle
       style="fill:url(#linearGradient1488);fill-opacity:1.0;fill-rule:nonzero;stroke-width:1.15953088"
       id="path1480"
       cx="6.3499999"
       cy="290.64996"
       r="6.3499999" />
    <g
       id="g7512"
       transform="matrix(0.01550279,0,0,0.01550281,1.6300223,286.60562)" />
    <g
       id="g7514"
       transform="matrix(0.01550279,0,0,0.01550281,1.6300223,286.60562)" />
    <g
       id="g7516"
       transform="matrix(0.01550279,0,0,0.01550281,1.6300223,286.60562)" />
    <g
       id="g7518"
       transform="matrix(0.01550279,0,0,0.01550281,1.6300223,286.60562)" />
    <g
       id="g7520"
       transform="matrix(0.01550279,0,0,0.01550281,1.6300223,286.60562)" />
    <g
       id="g7522"
       transform="matrix(0.01550279,0,0,0.01550281,1.6300223,286.60562)" />
    <g
       id="g7524"
       transform="matrix(0.01550279,0,0,0.01550281,1.6300223,286.60562)" />
    <g
       id="g7526"
       transform="matrix(0.01550279,0,0,0.01550281,1.6300223,286.60562)" />
    <g
       id="g7528"
       transform="matrix(0.01550279,0,0,0.01550281,1.6300223,286.60562)" />
    <g
       id="g7530"
       transform="matrix(0.01550279,0,0,0.01550281,1.6300223,286.60562)" />
    <g
       id="g7532"
       transform="matrix(0.01550279,0,0,0.01550281,1.6300223,286.60562)" />
    <g
       id="g7534"
       transform="matrix(0.01550279,0,0,0.01550281,1.6300223,286.60562)" />
    <g
       id="g7536"
       transform="matrix(0.01550279,0,0,0.01550281,1.6300223,286.60562)" />
    <g
       id="g7538"
       transform="matrix(0.01550279,0,0,0.01550281,1.6300223,286.60562)" />
    <g
       id="g7540"
       transform="matrix(0.01550279,0,0,0.01550281,1.6300223,286.60562)" />
    <g
       id="g7674"
       transform="matrix(0.0144693,0,0,0.01446907,13.904307,285.63952)" />
    <g
       id="g7676"
       transform="matrix(0.0144693,0,0,0.01446907,13.904307,285.63952)" />
    <g
       id="g7678"
       transform="matrix(0.0144693,0,0,0.01446907,13.904307,285.63952)" />
    <g
       id="g7680"
       transform="matrix(0.0144693,0,0,0.01446907,13.904307,285.63952)" />
    <g
       id="g7682"
       transform="matrix(0.0144693,0,0,0.01446907,13.904307,285.63952)" />
    <g
       id="g7684"
       transform="matrix(0.0144693,0,0,0.01446907,13.904307,285.63952)" />
    <g
       id="g7686"
       transform="matrix(0.0144693,0,0,0.01446907,13.904307,285.63952)" />
    <g
       id="g7688"
       transform="matrix(0.0144693,0,0,0.01446907,13.904307,285.63952)" />
    <g
       id="g7690"
       transform="matrix(0.0144693,0,0,0.01446907,13.904307,285.63952)" />
    <g
       id="g7692"
       transform="matrix(0.0144693,0,0,0.01446907,13.904307,285.63952)" />
    <g
       id="g7694"
       transform="matrix(0.0144693,0,0,0.01446907,13.904307,285.63952)" />
    <g
       id="g7696"
       transform="matrix(0.0144693,0,0,0.01446907,13.904307,285.63952)" />
    <g
       id="g7698"
       transform="matrix(0.0144693,0,0,0.01446907,13.904307,285.63952)" />
    <g
       id="g7700"
       transform="matrix(0.0144693,0,0,0.01446907,13.904307,285.63952)" />
    <g
       id="g7702"
       transform="matrix(0.0144693,0,0,0.01446907,13.904307,285.63952)" />
    <path
       inkscape:connector-curvature="0"
       style="fill:#ffffff;fill-opacity:1;stroke:none;stroke-width:0.05676843;image-rendering:optimizeSpeed"
       d="m 9.3179899,287.54832 c -2.4086481,0 -4.094106,2.25946 -4.094106,2.25946 -1.7402313,0.2344 -2.7850495,1.45327 -2.7850495,1.45327 0.4840591,-0.0118 0.9657002,-0.10607 1.7263126,-0.10607 0.760621,0 0.1251726,0.71602 0.1251726,0.71602 0.2304986,0.46881 0.8918429,0.99713 0.8918429,0.99713 0.3111245,-0.33988 0.6675758,-0.22274 0.6675758,-0.22274 v 1.7821 c 1.2216094,-1.06653 1.2569087,-2.65196 1.2569087,-2.65196 2.2357746,-1.48845 2.2113429,-4.22721 2.2113429,-4.22721 z m -1.9714323,1.40553 c 0.3882579,0 0.704071,0.32119 0.704071,0.71603 0,0.39485 -0.3158131,0.71602 -0.704071,0.71602 -0.3882664,0 -0.704071,-0.32117 -0.704071,-0.71602 0,-0.39484 0.3158046,-0.71603 0.704071,-0.71603 z m -3.3900258,3.39982 c 0,0 -0.7458011,0.72576 -0.7458184,1.40554 0.6799604,0 0.9776516,-0.0957 1.3925334,-0.76377 0,0 -0.2389746,0.20153 -0.6884363,0.20153 0,0 -0.1196346,-0.26903 0.041686,-0.8433 z"
       id="path9721" />
  </g>
</svg>
