<?xml version="1.0" encoding="UTF-8" standalone="no"?>
<svg
   xmlns:osb="http://www.openswatchbook.org/uri/2009/osb"
   xmlns:dc="http://purl.org/dc/elements/1.1/"
   xmlns:cc="http://creativecommons.org/ns#"
   xmlns:rdf="http://www.w3.org/1999/02/22-rdf-syntax-ns#"
   xmlns:svg="http://www.w3.org/2000/svg"
   xmlns="http://www.w3.org/2000/svg"
   xmlns:xlink="http://www.w3.org/1999/xlink"
   xmlns:sodipodi="http://sodipodi.sourceforge.net/DTD/sodipodi-0.dtd"
   xmlns:inkscape="http://www.inkscape.org/namespaces/inkscape"
   width="48"
   height="48"
   viewBox="0 0 12.7 12.7"
   version="1.1"
   id="svg903"
   inkscape:version="1.0 (4035a4fb49, 2020-05-01)"
   sodipodi:docname="launcher.svg">
  <defs
     id="defs897">
    <linearGradient
       id="linearGradient7797"
       osb:paint="solid">
      <stop
         style="stop-color:#cbd1d4;stop-opacity:1;"
         offset="0"
         id="stop7795" />
    </linearGradient>
    <linearGradient
       gradientTransform="matrix(0.26458333,0,0,0.26458333,9.686172,285.19034)"
       gradientUnits="userSpaceOnUse"
       x1="24"
       y1="4.9488816"
       x2="24"
       y2="43.814733"
       id="linearGradient-1">
      <stop
         stop-color="#2CCAFF"
         offset="0%"
         id="stop7449" />
      <stop
         stop-color="#218AFF"
         offset="100%"
         id="stop7451" />
    </linearGradient>
    <marker
       inkscape:stockid="Arrow1Lstart"
       orient="auto"
       refY="0.0"
       refX="0.0"
       id="Arrow1Lstart"
       style="overflow:visible"
       inkscape:isstock="true">
      <path
         id="path1697"
         d="M 0.0,0.0 L 5.0,-5.0 L -12.5,0.0 L 5.0,5.0 L 0.0,0.0 z "
         style="fill-rule:evenodd;stroke:#000000;stroke-width:1.0pt"
         transform="scale(0.8) translate(12.5,0)" />
    </marker>
    <linearGradient
       id="panda-color"
       x1="10.626438"
       x2="19.31065"
       y1="19.279192"
       y2="27.963404"
       gradientUnits="userSpaceOnUse"
       gradientTransform="matrix(0.84524357,-0.84524354,0.84524357,0.84524354,-20.020386,281.7995)">
      <stop
         offset="0%"
         stop-color="#00B8E8"
         id="stop27" />
      <stop
         offset="100%"
         stop-color="#4B5EFF"
         id="stop29" />
    </linearGradient>
    <linearGradient
       inkscape:collect="always"
       xlink:href="#panda-color"
       id="linearGradient1488"
       x1="0.28397381"
       y1="290.83606"
       x2="3.5914345"
       y2="290.83606"
       gradientUnits="userSpaceOnUse"
       gradientTransform="matrix(3.52646,0,0,4.5936786,-0.54739723,-1045.2932)" />
    <linearGradient
       id="linearGradient-1-0"
       y2="43.814733"
       x2="24"
       y1="4.9488816"
       x1="24"
       gradientUnits="userSpaceOnUse"
       gradientTransform="matrix(0.26458333,0,0,0.26458333,9.686172,285.19034)">
      <stop
         id="stop1529"
         offset="0%"
         stop-color="#2CCAFF"
         style="stop-color:#ffffff;stop-opacity:1" />
      <stop
         id="stop1531"
         offset="100%"
         stop-color="#218AFF"
         style="stop-color:#e6e6e6;stop-opacity:1" />
    </linearGradient>
    <linearGradient
       id="linearGradient-1-6"
       y2="43.814733"
       x2="24"
       y1="4.9488816"
       x1="24"
       gradientUnits="userSpaceOnUse">
      <stop
         id="stop7612"
         offset="0%"
         stop-color="#2CCAFF" />
      <stop
         id="stop7614"
         offset="100%"
         stop-color="#218AFF" />
    </linearGradient>
    <linearGradient
       inkscape:collect="always"
       xlink:href="#linearGradient7797"
       id="linearGradient7799"
       x1="13.904358"
       y1="289.34368"
       x2="21.312689"
       y2="289.34368"
       gradientUnits="userSpaceOnUse" />
    <radialGradient
       inkscape:collect="always"
       xlink:href="#linearGradient-1-6"
       id="radialGradient946"
       cx="5.1652017"
       cy="296.11621"
       fx="5.1652017"
       fy="296.11621"
       r="5.8319998"
       gradientUnits="userSpaceOnUse"
       gradientTransform="matrix(-0.00151605,-0.94009181,0.94424253,-0.00152277,-273.15367,296.10076)" />
  </defs>
  <sodipodi:namedview
     id="base"
     pagecolor="#ffffff"
     bordercolor="#666666"
     borderopacity="1.0"
     inkscape:pageopacity="0.0"
     inkscape:pageshadow="2"
     inkscape:zoom="15.839192"
     inkscape:cx="11.841534"
     inkscape:cy="21.467411"
     inkscape:document-units="mm"
     inkscape:current-layer="layer1"
     showgrid="false"
     units="px"
     inkscape:window-width="1920"
     inkscape:window-height="971"
     inkscape:window-x="0"
     inkscape:window-y="32"
     inkscape:window-maximized="1"
     inkscape:document-rotation="0" />
  <metadata
     id="metadata900">
    <rdf:RDF>
      <cc:Work
         rdf:about="">
        <dc:format>image/svg+xml</dc:format>
        <dc:type
           rdf:resource="http://purl.org/dc/dcmitype/StillImage" />
        <dc:title />
      </cc:Work>
    </rdf:RDF>
  </metadata>
  <g
     inkscape:label="Layer 1"
     inkscape:groupmode="layer"
     id="layer1"
     transform="translate(0,-284.29997)">
    <g
       id="g7512"
       transform="matrix(0.01550279,0,0,0.01550281,1.6300223,286.60562)" />
    <g
       id="g7514"
       transform="matrix(0.01550279,0,0,0.01550281,1.6300223,286.60562)" />
    <g
       id="g7516"
       transform="matrix(0.01550279,0,0,0.01550281,1.6300223,286.60562)" />
    <g
       id="g7518"
       transform="matrix(0.01550279,0,0,0.01550281,1.6300223,286.60562)" />
    <g
       id="g7520"
       transform="matrix(0.01550279,0,0,0.01550281,1.6300223,286.60562)" />
    <g
       id="g7522"
       transform="matrix(0.01550279,0,0,0.01550281,1.6300223,286.60562)" />
    <g
       id="g7524"
       transform="matrix(0.01550279,0,0,0.01550281,1.6300223,286.60562)" />
    <g
       id="g7526"
       transform="matrix(0.01550279,0,0,0.01550281,1.6300223,286.60562)" />
    <g
       id="g7528"
       transform="matrix(0.01550279,0,0,0.01550281,1.6300223,286.60562)" />
    <g
       id="g7530"
       transform="matrix(0.01550279,0,0,0.01550281,1.6300223,286.60562)" />
    <g
       id="g7532"
       transform="matrix(0.01550279,0,0,0.01550281,1.6300223,286.60562)" />
    <g
       id="g7534"
       transform="matrix(0.01550279,0,0,0.01550281,1.6300223,286.60562)" />
    <g
       id="g7536"
       transform="matrix(0.01550279,0,0,0.01550281,1.6300223,286.60562)" />
    <g
       id="g7538"
       transform="matrix(0.01550279,0,0,0.01550281,1.6300223,286.60562)" />
    <g
       id="g7540"
       transform="matrix(0.01550279,0,0,0.01550281,1.6300223,286.60562)" />
    <g
       id="g7674"
       transform="matrix(0.0144693,0,0,0.01446907,13.904307,285.63952)" />
    <g
       id="g7676"
       transform="matrix(0.0144693,0,0,0.01446907,13.904307,285.63952)" />
    <g
       id="g7678"
       transform="matrix(0.0144693,0,0,0.01446907,13.904307,285.63952)" />
    <g
       id="g7680"
       transform="matrix(0.0144693,0,0,0.01446907,13.904307,285.63952)" />
    <g
       id="g7682"
       transform="matrix(0.0144693,0,0,0.01446907,13.904307,285.63952)" />
    <g
       id="g7684"
       transform="matrix(0.0144693,0,0,0.01446907,13.904307,285.63952)" />
    <g
       id="g7686"
       transform="matrix(0.0144693,0,0,0.01446907,13.904307,285.63952)" />
    <g
       id="g7688"
       transform="matrix(0.0144693,0,0,0.01446907,13.904307,285.63952)" />
    <g
       id="g7690"
       transform="matrix(0.0144693,0,0,0.01446907,13.904307,285.63952)" />
    <g
       id="g7692"
       transform="matrix(0.0144693,0,0,0.01446907,13.904307,285.63952)" />
    <g
       id="g7694"
       transform="matrix(0.0144693,0,0,0.01446907,13.904307,285.63952)" />
    <g
       id="g7696"
       transform="matrix(0.0144693,0,0,0.01446907,13.904307,285.63952)" />
    <g
       id="g7698"
       transform="matrix(0.0144693,0,0,0.01446907,13.904307,285.63952)" />
    <g
       id="g7700"
       transform="matrix(0.0144693,0,0,0.01446907,13.904307,285.63952)" />
    <g
       id="g7702"
       transform="matrix(0.0144693,0,0,0.01446907,13.904307,285.63952)" />
    <rect
       style="fill:url(#radialGradient946);fill-opacity:1;stroke-width:0.56636"
       id="rect64"
       width="11"
       height="11"
       x="0.85000002"
       y="285.14996"
       ry="2.0999568" />
    <path
       inkscape:connector-curvature="0"
       style="fill:#ffffff;fill-opacity:1;stroke:none;stroke-width:0.0524306;image-rendering:optimizeSpeed"
       d="m 9.5267471,287.4732 c -2.2245982,0 -3.7812666,2.08682 -3.7812666,2.08682 -1.6072565,0.21647 -2.5722379,1.34219 -2.5722379,1.34219 0.4470711,-0.0109 0.8919089,-0.0979 1.5944014,-0.0979 0.7025002,0 0.1156078,0.6613 0.1156078,0.6613 0.2128857,0.43299 0.8236954,0.92093 0.8236954,0.92093 0.2873507,-0.31393 0.6165647,-0.20573 0.6165647,-0.20573 v 1.64592 c 1.1282637,-0.98503 1.1608658,-2.44931 1.1608658,-2.44931 2.0649344,-1.37472 2.0423694,-3.9042 2.0423694,-3.9042 z m -1.8207909,1.29813 c 0.3585902,0 0.6502714,0.29665 0.6502714,0.66132 0,0.36467 -0.2916812,0.6613 -0.6502714,0.6613 -0.3585982,0 -0.6502715,-0.29663 -0.6502715,-0.6613 0,-0.36467 0.2916733,-0.66132 0.6502715,-0.66132 z m -3.1309868,3.14002 c 0,0 -0.6888127,0.6703 -0.6888288,1.29813 0.6280032,0 0.9029472,-0.0884 1.286127,-0.70539 0,0 -0.220714,0.18612 -0.6358315,0.18612 0,0 -0.110493,-0.24846 0.038501,-0.77886 z"
       id="path9721" />
  </g>
</svg>
