<?xml version="1.0" encoding="UTF-8" standalone="no"?>
<svg
   xmlns:dc="http://purl.org/dc/elements/1.1/"
   xmlns:cc="http://creativecommons.org/ns#"
   xmlns:rdf="http://www.w3.org/1999/02/22-rdf-syntax-ns#"
   xmlns:svg="http://www.w3.org/2000/svg"
   xmlns="http://www.w3.org/2000/svg"
   xmlns:xlink="http://www.w3.org/1999/xlink"
   xmlns:sodipodi="http://sodipodi.sourceforge.net/DTD/sodipodi-0.dtd"
   xmlns:inkscape="http://www.inkscape.org/namespaces/inkscape"
   inkscape:version="1.0 (4035a4fb49, 2020-05-01)"
   sodipodi:docname="user-trash-full.svg"
   id="svg47"
   version="1.1"
   width="48"
   height="48">
  <metadata
     id="metadata53">
    <rdf:RDF>
      <cc:Work
         rdf:about="">
        <dc:format>image/svg+xml</dc:format>
        <dc:type
           rdf:resource="http://purl.org/dc/dcmitype/StillImage" />
      </cc:Work>
    </rdf:RDF>
  </metadata>
  <defs
     id="defs51" />
  <sodipodi:namedview
     inkscape:current-layer="svg47"
     inkscape:window-maximized="0"
     inkscape:window-y="568"
     inkscape:window-x="809"
     inkscape:cy="24"
     inkscape:cx="24"
     inkscape:zoom="14.895833"
     showgrid="false"
     id="namedview49"
     inkscape:window-height="480"
     inkscape:window-width="765"
     inkscape:pageshadow="2"
     inkscape:pageopacity="0"
     guidetolerance="10"
     gridtolerance="10"
     objecttolerance="10"
     borderopacity="1"
     bordercolor="#666666"
     pagecolor="#ffffff" />
  <linearGradient
     id="a">
    <stop
       id="stop2"
       stop-color="#999"
       offset="0" />
    <stop
       id="stop4"
       stop-color="#1a1a1a"
       offset="1" />
  </linearGradient>
  <linearGradient
     y2="21.986858"
     y1="22.328428"
     x2="40.394974"
     x1="7.622372"
     gradientUnits="userSpaceOnUse"
     id="b">
    <stop
       id="stop7"
       stop-color="#b3b3b3"
       offset="0" />
    <stop
       id="stop9"
       stop-color="#ccc"
       offset=".18864594" />
    <stop
       id="stop11"
       stop-color="#ccc"
       offset=".53542525" />
    <stop
       id="stop13"
       stop-color="#ccc"
       offset="1" />
  </linearGradient>
  <linearGradient
     y2="42.423794"
     y1="4.542438"
     xlink:href="#a"
     x2="34.828678"
     x1="13.677746"
     gradientUnits="userSpaceOnUse"
     gradientTransform="matrix(1,0,0,1.033115,0.077296,-0.469662)"
     id="c" />
  <linearGradient
     y2="37.690704"
     y1="6.143335"
     xlink:href="#a"
     x2="28.069216"
     x1="10.298015"
     gradientUnits="userSpaceOnUse"
     gradientTransform="matrix(1,0,0,1.033115,0.077296,-0.469662)"
     id="d" />
  <linearGradient
     y2="4.504845"
     y1="11.68183"
     x2="26.355176"
     x1="37.720107"
     gradientUnits="userSpaceOnUse"
     id="e">
    <stop
       id="stop18"
       stop-color="#1ba39c"
       offset="0" />
    <stop
       id="stop20"
       stop-color="#37c8ab"
       offset="1" />
  </linearGradient>
  <linearGradient
     y2=".118386"
     y1="13.709218"
     x2="27.433814"
     x1="15.640711"
     gradientUnits="userSpaceOnUse"
     id="f">
    <stop
       id="stop23"
       stop-color="#f2f2f2"
       offset="0" />
    <stop
       id="stop25"
       stop-color="#fff"
       offset="1" />
  </linearGradient>
  <linearGradient
     y2="4.217208"
     y1="12.414853"
     x2="17.078895"
     x1="11.182343"
     gradientUnits="userSpaceOnUse"
     id="g">
    <stop
       id="stop28"
       stop-color="#f9de69"
       offset="0" />
    <stop
       id="stop30"
       stop-color="#fea"
       offset="1" />
  </linearGradient>
  <g
     transform="matrix(1,0,0,0.94515444,1.2763596e-8,0.79565764)"
     id="g885">
    <path
       d="M 22.19695,47.053704 C 17.500134,46.722951 13.676295,45.405355 12.024113,43.548395 11.435836,42.887206 11.276615,42.533107 11.102281,41.498299 10.621158,38.642466 5.8938081,12.515785 5.770191,12.029382 4.9237918,8.69909 8.3773631,5.6827543 14.928801,4.0303021 c 1.500367,-0.3784406 3.780146,-0.7531995 5.589238,-0.9187918 1.624287,-0.1486802 5.394273,-0.1486802 7.018558,0 7.925551,0.7254538 13.858447,3.5317503 14.752444,6.9779817 0.172624,0.665456 0.157911,1.174092 -0.06059,2.094274 -0.236343,0.995366 -5.333788,29.37663 -5.333788,29.697163 0,0.1301 -0.12911,0.501964 -0.28691,0.826352 -0.800803,1.646172 -3.485897,3.104999 -7.112221,3.864113 -2.01838,0.422514 -5.180441,0.631469 -7.29862,0.48231 z"
       fill-opacity="0.313726"
       stroke-width="0.988942"
       id="path33" />
    <path
       style="fill:url(#b)"
       d="M 22.126086,45.95212 C 17.31255,45.622129 13.393684,44.307572 11.700444,42.454894 11.097546,41.795229 10.934368,41.441947 10.755703,40.409525 10.262622,37.560277 5.4177925,11.493842 5.2911034,11.008561 4.4236703,7.6859483 7.9630669,4.676568 14.677315,3.0279262 c 1.537654,-0.3775679 3.874088,-0.7514627 5.728138,-0.9166731 1.664652,-0.1483374 5.528327,-0.1483374 7.192977,0 8.122512,0.7237809 14.202845,3.5236063 15.119059,6.9618909 0.176915,0.6639218 0.161836,1.171385 -0.06209,2.089445 -0.242218,0.993071 -5.466341,29.30889 -5.466341,29.628684 0,0.1298 -0.132318,0.500806 -0.294039,0.824446 -0.820704,1.642376 -3.572525,3.097839 -7.288967,3.855203 -2.06854,0.42154 -5.309181,0.630013 -7.48,0.481198 z"
       fill="url(#b)"
       id="path35" />
    <path
       style="fill:url(#c)"
       d="m 23.989441,3.0784752 c 3.475443,-0.00186 6.99436,0.4414194 10.089767,1.3740443 2.851257,0.859068 5.005939,2.0304604 6.196026,3.3671404 0.804629,0.9037349 0.955951,1.4763611 0.606176,2.2921641 -0.821612,1.91682 -4.481321,3.868694 -9.084739,4.845755 -1.852934,0.393287 -3.615579,0.616178 -5.801123,0.73408 -1.913034,0.103198 -2.155427,0.104764 -4.219537,-0.0042 h 0.100701 C 15.853219,15.374784 10.380721,13.637254 8.0175973,11.320649 7.417896,10.731833 6.9398212,9.891305 6.9414872,9.430031 6.944318,8.6493689 7.8518761,7.4828923 9.1233252,6.6233844 12.524198,4.3243702 18.197039,3.081573 23.989441,3.0784752 Z"
       fill="url(#c)"
       stroke-width="1.10883"
       id="path37" />
    <path
       style="fill:url(#d)"
       d="m 23.989441,3.0784752 c 3.475443,-0.00186 6.99436,0.4414194 10.089767,1.3740443 2.851257,0.859068 5.005939,2.0304604 6.196026,3.3671404 0.804629,0.9037349 0.955951,1.4763611 0.606176,2.2921641 -0.821612,1.91682 -4.481321,3.868694 -9.084739,4.845755 -1.852934,0.393287 -3.615579,0.616178 -5.801123,0.73408 -1.913034,0.103198 -2.155427,0.104764 -4.219537,-0.0042 h 0.100701 C 15.853219,15.374784 10.380721,13.637254 8.0175973,11.320649 7.417896,10.731833 6.9398212,9.891305 6.9414872,9.430031 6.944318,8.6493689 7.8518761,7.4828923 9.1233252,6.6233844 12.524198,4.3243702 18.197039,3.081573 23.989441,3.0784752 Z"
       fill="url(#d)"
       stroke-width="1.10883"
       id="path39" />
    <path
       style="fill:url(#g)"
       d="m 12.575642,12.828069 c -2.206307,-0.916244 -2.397058,-0.857168 -2.425224,-1.885576 -0.01253,-0.457498 0.110211,-0.742985 0.101861,-0.836392 -0.01943,-0.2172821 4.759746,-3.6080601 5.100719,-3.6189101 0.140742,-0.0045 0.438985,0.06147 0.662763,0.146548 l 0.406867,0.154692 -0.395311,0.490779 c -1.611465,2.000625 -2.524905,3.2911491 -2.524905,3.5672221 0,0.178159 0.240098,0.850787 0.533552,1.494729 0.293454,0.643942 0.515053,1.189303 0.492441,1.211914 -0.02261,0.02261 -0.73981,-0.221287 -1.952763,-0.725006 z"
       fill="url(#g)"
       id="path41" />
    <path
       style="fill:url(#e)"
       d="m 35.448401,12.286806 c 0,-0.303687 -0.309605,-0.774306 -1.124021,-1.708599 -1.263065,-1.4489691 -1.2821,-1.3667301 0.368969,-1.5938101 0.722286,-0.09934 0.815191,-0.07485 1.237596,0.326285 0.820937,0.7795841 1.985212,2.2556291 1.789163,2.3711481 -0.177613,0.142496 -2.362714,1.18018 -2.57539,1.18018 -0.08605,0 0.303683,-0.344681 0.303683,-0.575204 z"
       fill="url(#e)"
       id="path43" />
    <path
       style="fill:url(#f)"
       d="m 19.770153,14.426598 c -1.715981,-0.19743 -4.787034,-0.767344 -5.232685,-0.865743 -0.41374,-0.09136 -0.517001,-0.425169 -0.926828,-1.4431 -0.271773,-0.675037 -0.494136,-1.29087 -0.494136,-1.368518 0,-0.139001 2.557375,-3.3803001 4.22214,-5.3791301 0.468077,-0.562005 0.961226,-1.023299 1.095888,-1.025099 0.348191,-0.0046 6.4904,0.737963 6.922955,0.837011 0.240436,0.05506 0.461871,0.309647 0.668937,0.769098 0.170239,0.37774 0.406822,0.723445 0.525738,0.768235 0.118917,0.04479 1.078406,-0.09596 2.132197,-0.312777 1.05379,-0.216816 2.055159,-0.394212 2.225262,-0.394212 0.38539,0 4.798344,5.6774871 4.798344,6.0743021 0,0.322415 -0.02395,0.616265 -0.440332,0.754011 -0.394703,0.130573 -1.054201,0.389001 -1.958076,0.607923 -3.207277,0.776815 -4.78669,1.068444 -9.078909,1.116734 -2.170172,0.02441 -4.162629,-0.104465 -4.460495,-0.138735 z"
       fill="url(#f)"
       id="path45" />
  </g>
</svg>
